<?xml version="1.0" encoding="UTF-8"?>
<svg width="24px" height="24px" viewBox="0 0 24 24" version="1.1" xmlns="http://www.w3.org/2000/svg" xmlns:xlink="http://www.w3.org/1999/xlink">
    <title>icons/black/search copy</title>
    <desc>Created with Sketch.</desc>
    <g id="icons/black/search-copy" stroke="none" stroke-width="1" fill="none" fill-rule="evenodd">
        <path d="M1,11.0686543 C1,16.6230968 5.51898086,21.1369989 11.0684065,21.1369989 C13.6252252,21.1369989 15.9640878,20.1757995 17.7427928,18.6 L21.9595833,22.8167905 C22.0783784,22.9355856 22.231982,22.995107 22.3904786,22.995107 C22.549161,22.995107 22.7028266,22.9355856 22.8216216,22.8167905 C23.0594595,22.5789527 23.0594595,22.1974212 22.8216216,21.9595833 L18.6,17.7427928 C20.1757995,15.9640878 21.1369989,13.6303041 21.1369989,11.0686543 C21.1369989,5.51414977 16.618018,1 11.0684065,1 C5.51898086,1 1,5.51414977 1,11.0686543 Z M19.922973,11.0686543 C19.922973,15.9490372 15.9490372,19.922973 11.0684065,19.922973 C6.18796171,19.922973 2.21408784,15.9490372 2.21408784,11.0686543 C2.21408784,6.18796171 6.18796171,2.21408784 11.0684065,2.21408784 C15.9490372,2.21408784 19.922973,6.18288288 19.922973,11.0686543 Z" id="001-search" fill="#05be3c" fill-rule="nonzero"></path>
    </g>
</svg>